<?xml version="1.0" encoding="utf-8"?>
<!-- Generator: Adobe Illustrator 26.0.0, SVG Export Plug-In . SVG Version: 6.00 Build 0)  -->
<svg version="1.1" id="Capa_1" xmlns="http://www.w3.org/2000/svg" xmlns:xlink="http://www.w3.org/1999/xlink" x="0px" y="0px"
	 viewBox="0 0 500 500" style="enable-background:new 0 0 500 500;" xml:space="preserve">
<style type="text/css">
	.st0{fill:#DD2023;}
	.st1{fill:#252223;}
</style>
<path class="st0" d="M125.98,48.81c0.18,2-1.39,3.47-2.27,5.13c-6.17,11.72-9.41,23.89-8.68,36.77
	c0.69,12.09,4.87,23.32,11.63,33.93c8.45,13.26,19.93,24.49,33.35,34.37c14.74,10.86,31.22,19.5,48.77,26.79
	c17.09,7.09,34.74,13.06,52.48,18.89c21.03,6.91,42.15,13.63,62.41,22.06c26.34,10.96,50.86,24.16,72.33,41.11
	c12.64,9.98,23.65,21.07,32.19,33.81c11.26,16.8,16.37,34.74,14.37,54c-1.15,11-4.79,21.47-9.97,31.59
	c-8.32,16.23-20.34,30.36-34.95,43.01c-8.02,6.94-16.62,13.34-25.92,19.06c-1.59-1.23-0.09-2.11,0.37-2.92
	c4.13-7.21,7.48-14.64,9.54-22.47c5.82-22.15,1.29-42.71-13.38-61.73c-8.76-11.35-19.9-20.83-32.68-29.01
	c-12.73-8.15-26.56-14.76-40.96-20.59c-19.96-8.09-40.71-14.58-61.42-21.15c-20.93-6.63-41.69-13.59-61.58-22.24
	c-22.9-9.96-44.5-21.53-64.03-35.7c-11.41-8.28-22.06-17.19-31.19-27.31C64.8,193.37,57.2,179.14,54.8,163.11
	c-1.73-11.54-0.59-22.95,2.68-34.23c5.31-18.33,15.46-34.65,29.3-49.45c10.44-11.16,22.52-20.95,35.85-29.66
	c0.93-0.61,1.75-1.8,3.34-0.98L125.98,48.81z"/>
<path class="st1" d="M79.92,423.05c2.02,0.76,4.08,1.45,6.05,2.29c19.37,8.25,40.19,12.42,61.45,15.38
	c17.57,2.45,35.24,3.1,52.99,2.12c13.97-0.77,27.68-2.82,40.94-6.68c8.21-2.39,15.9-5.62,22.79-10.09
	c10.99-7.13,17.52-16.53,20.18-27.89c3.01-12.83,0.62-25.09-5.86-36.84c-5.06-9.19-12.3-17.13-20.74-24.33
	c-7.78-6.64-16.3-12.57-25.47-17.8c-9.88-5.64-19.95-11.04-29.92-16.56c-7.02-3.88-14.04-7.76-21.02-11.7
	c-1.17-0.66-2.76-1.08-3.13-2.69c0.72,0.11,1.41,0.08,1.93,0.31c14.76,6.78,30.22,12.36,45.19,18.76
	c26.67,11.39,52.19,24.39,76.34,39.23c10.76,6.62,20.58,14.08,28.75,22.97c9.34,10.16,15.81,21.41,18.32,34.12
	c6.18,31.3-10.84,60.02-45.89,72.68c-12.56,4.54-25.73,7-39.3,7.46c-47.28,1.62-91.98-6.59-133.6-25.66
	c-18-8.24-34.14-18.58-48.04-31.28c-0.89-0.82-1.67-1.72-2.49-2.57C79.56,423.89,79.74,423.47,79.92,423.05z"/>
<path class="st1" d="M417.08,73.68c-2.23-0.8-4.52-1.5-6.69-2.4c-15.99-6.65-32.99-10.63-50.42-13.53
	c-13.06-2.18-26.24-3.55-39.53-4c-20.95-0.71-41.59,0.97-61.69,6.2c-9.58,2.49-18.54,6.07-26.44,11.34
	c-11.28,7.52-17.65,17.39-19.94,29.21c-2.58,13.3,0.47,25.79,7.74,37.67c5.93,9.69,14.13,17.9,23.55,25.32
	c8.9,7.01,18.65,13.12,28.83,18.73c11.1,6.11,22.33,12.06,33.42,18.17c5.16,2.85,10.42,5.6,15.2,9.1c-0.49,0.1-0.9,0.3-1.11,0.2
	c-15.35-7.02-31.34-12.96-46.94-19.53c-26.95-11.36-52.62-24.48-77-39.36c-10.42-6.36-19.98-13.51-28.07-21.97
	c-10.6-11.08-17.69-23.47-20.06-37.59c-4.68-27.95,9.43-55.32,41.92-68.91c12.86-5.38,26.59-8.33,40.84-8.98
	c47.26-2.16,92.04,5.7,133.93,24.32c17.72,7.88,33.73,17.73,47.67,29.87c1.98,1.72,4.25,3.26,5.47,5.52l-0.59,0.12L417.08,73.68z"/>
</svg>
